<svg width="10px" height="12px" viewBox="0 0 10 12" version="1.1" xmlns="http://www.w3.org/2000/svg" xmlns:xlink="http://www.w3.org/1999/xlink">
                    <g stroke="none" stroke-width="1" fill="none" fill-rule="evenodd">
                        <g transform="translate(-600.000000, -392.000000)" fill="#161616">
                            <path d="M609.921127,400.923944 C609.921127,401.442256 609.814086,401.892956 609.6,402.276056 C609.385914,402.659157 609.09296,402.977464 608.721127,403.230986 C608.349294,403.484508 607.915495,403.676056 607.419718,403.805634 C606.923941,403.935212 606.400003,404 605.847887,404 L600,404 L600,392 L606.676056,392 C607.09296,392 607.470421,392.09014 607.808451,392.270423 C608.146481,392.450705 608.433802,392.684506 608.670423,392.971831 C608.907043,393.259156 609.09014,393.585914 609.219718,393.952113 C609.349296,394.318312 609.414085,394.692956 609.414085,395.076056 C609.414085,395.650707 609.270424,396.191547 608.983099,396.698592 C608.695773,397.205636 608.264792,397.588731 607.690141,397.847887 C608.377468,398.050705 608.921125,398.411265 609.321127,398.929577 C609.721129,399.44789 609.921127,400.112672 609.921127,400.923944 Z M607.098592,400.366197 C607.098592,399.994364 606.99155,399.678875 606.777465,399.419718 C606.563379,399.160562 606.292959,399.030986 605.966197,399.030986 L602.771831,399.030986 L602.771831,401.650704 L605.847887,401.650704 C606.208453,401.650704 606.507041,401.532396 606.743662,401.295775 C606.980283,401.059154 607.098592,400.749298 607.098592,400.366197 Z M602.771831,394.366197 L602.771831,396.850704 L605.492958,396.850704 C605.797185,396.850704 606.067604,396.749297 606.304225,396.546479 C606.540846,396.343661 606.659155,396.028171 606.659155,395.6 C606.659155,395.205632 606.554931,394.90141 606.346479,394.687324 C606.138027,394.473238 605.887325,394.366197 605.594366,394.366197 L602.771831,394.366197 Z" id="B-Copy-3"></path>
                        </g>
                    </g>
                </svg>