<svg width="48px" height="48px" viewBox="0 0 48 48" version="1.1" xmlns="http://www.w3.org/2000/svg" xmlns:xlink="http://www.w3.org/1999/xlink">
                    <g stroke="none" stroke-width="1" fill="none" fill-rule="evenodd">
                        <g transform="translate(-587.000000, -667.000000)" fill="current">
                            <g transform="translate(587.000000, 667.000000)">
                                <g transform="translate(6.000000, 5.000000)">
                                    <polygon points="1.06794958 3.24510924 0.96794958 3.14510924 0.96794958 2.044 1.06794958 1.944 5.94786555 1.944 6.04786555 2.044 6.04786555 3.14510924 5.94786555 3.24510924 4.26273389 3.24510924 4.26273389 8 4.16273389 8.1 2.85308123 8.1 2.75308123 8 2.75308123 3.24510924"></polygon>
                                    <polygon fill-rule="nonzero" points="9.39730105 8.7 10.2136569 8.7 10.2136569 9.30000001 8 9.30000001 8 8.7 8.75 8.7 8.75 1.3999878 8 1.3999878 8 0.799987793 10.2136569 0.799987793 10.2136569 1.3999878 9.39730105 1.3999878"></polygon>
                                </g>
                                <g transform="translate(6.000000, 33.000000)">
                                    <polygon points="1.06794958 3.24510924 0.96794958 3.14510924 0.96794958 2.044 1.06794958 1.944 5.94786555 1.944 6.04786555 2.044 6.04786555 3.14510924 5.94786555 3.24510924 4.26273389 3.24510924 4.26273389 8 4.16273389 8.1 2.85308123 8.1 2.75308123 8 2.75308123 3.24510924"></polygon>
                                    <polygon fill-rule="nonzero" points="9.39730105 8.7 10.2136569 8.7 10.2136569 9.30000001 8 9.30000001 8 8.7 8.75 8.7 8.75 1.3999878 8 1.3999878 8 0.799987793 10.2136569 0.799987793 10.2136569 1.3999878 9.39730105 1.3999878"></polygon>
                                </g>
                                <path d="M7.086,0 L40.913,0 C44.827,0 47.999,3.173 47.999,7.086 L47.999,40.913 C47.999,44.827 44.827,48 40.913,48 L7.086,48 C3.172,48 0,44.827 0,40.913 L0,7.086 C0,3.173 3.172,0 7.086,0 Z M7,4 C5.8954305,4 5,4.8954305 5,6 L5,14 C5,15.1045695 5.8954305,16 7,16 L41,16 C42.1045695,16 43,15.1045695 43,14 L43,6 C43,4.8954305 42.1045695,4 41,4 L7,4 Z M7,32 C5.8954305,32 5,32.8954305 5,34 L5,42 C5,43.1045695 5.8954305,44 7,44 L41,44 C42.1045695,44 43,43.1045695 43,42 L43,34 C43,32.8954305 42.1045695,32 41,32 L7,32 Z M28.3753539,19 C27.6582834,19 27.075,19.6210795 27.075,20.3846154 C27.075,21.1481512 27.6582834,21.7692308 28.3753539,21.7692308 C29.0917166,21.7692308 29.675,21.1481512 29.675,20.3846154 C29.675,19.6210795 29.0917166,19 28.3753539,19 Z M21.2828693,27.999275 L21.2828693,28 L25.7096449,28 L25.7172238,28 L29.8318859,28 L29.8394648,28 C29.9283448,28 30,27.9246005 30,27.831801 C30,27.7738014 29.9717513,27.7223267 29.9297228,27.6918769 L25.971462,22.7532073 C25.9425243,22.7162325 25.8998068,22.6944827 25.8543333,22.6930327 L25.8488213,22.6930327 C25.8054148,22.6930327 25.7640753,22.7111576 25.7337596,22.7445074 L24.0636423,24.5620712 L21.5729351,20.1156736 C21.5157487,20.0127242 21.3545245,20.0127242 21.2973382,20.1156736 L17.0221409,27.7455266 C16.9932032,27.7970013 16.9925142,27.8615259 17.0207629,27.9144505 C17.0490116,27.9666502 17.102064,27.999275 17.1599393,27.999275 L21.2828693,27.999275 Z"></path>
                            </g>
                        </g>
                    </g>
                </svg>