<svg width="14px" height="21px" viewBox="0 0 14 21" version="1.1" xmlns="http://www.w3.org/2000/svg" xmlns:xlink="http://www.w3.org/1999/xlink">
                    <g stroke="none" stroke-width="1" fill="none" fill-rule="evenodd">
                        <g transform="translate(-919.000000, -391.000000)" fill="#161616">
                            <g transform="translate(919.000000, 391.000000)">
                                <path d="M12.75505,2.94490085 L9.45,2.94490085 L9.45,1.90480651 C9.45,1.33136783 8.9789,0.864712166 8.4,0.864712166 L5.6,0.864712166 C5.0211,0.864712166 4.55,1.33136783 4.55,1.90480651 L4.55,2.94490085 L1.24495,2.94490085 C0.5586,2.94490085 0,3.49823103 0,4.17810603 L0,5.71848575 L14,5.71848575 L14,4.17810603 C14,3.49823103 13.4414,2.94490085 12.75505,2.94490085 L12.75505,2.94490085 L12.75505,2.94490085 Z M8.50611377,3.02220818 L5.10366826,3.02220818 L5.10366826,2.01110409 C5.10366826,1.82506094 5.25643806,1.67406939 5.44391281,1.67406939 L8.16586922,1.67406939 C8.35334397,1.67406939 8.50611377,1.82506094 8.50611377,2.01110409 L8.50611377,3.02220818 L8.50611377,3.02220818 L8.50611377,3.02220818 Z" id="Fill-700"></path>
                                <path d="M0.952380952,18.8801481 C0.952380952,19.5730914 1.52161009,20.1369504 2.22149313,20.1369504 L11.9324129,20.1369504 C12.6319556,20.1369504 13.2011848,19.5730914 13.2011848,18.8801481 L13.2011848,7.66666667 L0.952380952,7.66666667 L0.952380952,18.8801481" id="Fill-701"></path>
                            </g>
                        </g>
                    </g>
                </svg>