<svg xmlns="http://www.w3.org/2000/svg" width="24" height="24" stroke="#4d90fe"><path d="M24 14.187V9.813c-2.148-.766-2.726-.802-3.027-1.53s.083-1.17 1.06-3.223L18.94 1.968c-2.026.963-2.488 1.364-3.224 1.06-.727-.302-.768-.89-1.527-3.027H9.813c-.764 2.144-.8 2.725-1.53 3.027-.752.313-1.203-.1-3.223-1.06L1.968 5.06c.977 2.055 1.362 2.493 1.06 3.224S2.146 9.05 0 9.813v4.375c2.14.76 2.725.8 3.027 1.528.304.734-.08 1.167-1.06 3.223l3.093 3.093c2-.95 2.47-1.373 3.223-1.06.728.302.764.88 1.53 3.027h4.374c.758-2.13.8-2.723 1.537-3.03.745-.308 1.186.1 3.215 1.062l3.093-3.093c-.975-2.05-1.362-2.492-1.06-3.223.3-.726.88-.763 3.027-1.528zm-4.875.764c-.577 1.394-.068 2.458.488 3.578l-1.084 1.084c-1.093-.543-2.16-1.076-3.573-.5-1.396.58-1.8 1.693-2.188 2.877h-1.534c-.398-1.185-.79-2.297-2.183-2.875-1.42-.588-2.507-.045-3.58.488L4.39 18.53c.557-1.118 1.066-2.18.487-3.58-.58-1.39-1.69-1.784-2.876-2.182v-1.533c1.185-.398 2.297-.79 2.875-2.184s.068-2.46-.488-3.58L5.47 4.387c1.082.538 2.162 1.077 3.58.488 1.392-.577 1.785-1.7 2.183-2.875h1.534c.398 1.185.792 2.297 2.184 2.875 1.42.588 2.506.045 3.58-.488l1.084 1.084c-.556 1.12-1.065 2.187-.488 3.58s1.69 1.784 2.875 2.183v1.534c-1.188.398-2.302.79-2.877 2.183zM12 9c1.654 0 3 1.346 3 3s-1.346 3-3 3-3-1.346-3-3 1.346-3 3-3zm0-2a5 5 0 1 0 0 10 5 5 0 1 0 0-10z"></path></svg>