<svg width="48px" height="48px" viewBox="0 0 48 48" version="1.1" xmlns="http://www.w3.org/2000/svg" xmlns:xlink="http://www.w3.org/1999/xlink">
                    <g stroke="none" stroke-width="1" fill="none" fill-rule="evenodd">
                        <g transform="translate(-807.000000, -667.000000)" fill="#161616">
                            <g transform="translate(807.000000, 667.000000)">
                                <path d="M16.8049334,14 L30.1950666,14 C31.7443905,14 33,15.2560053 33,16.8049334 L33,30.1950666 C33,31.7443905 31.7443905,33.0003958 30.1950666,33.0003958 L16.8049334,33.0003958 C15.2556095,33.0003958 14,31.7443905 14,30.1950666 L14,16.8049334 C14,15.2560053 15.2556095,14 16.8049334,14 Z M27.8758539,18.5001979 C27.1587834,18.5001979 26.5755,19.1212774 26.5755,19.8848133 C26.5755,20.6483492 27.1587834,21.2694287 27.8758539,21.2694287 C28.5922166,21.2694287 29.1755,20.6483492 29.1755,19.8848133 C29.1755,19.1212774 28.5922166,18.5001979 27.8758539,18.5001979 Z M20.7833693,27.4994729 L20.7833693,27.5001979 L25.2101449,27.5001979 L25.2177238,27.5001979 L29.3323859,27.5001979 L29.3399648,27.5001979 C29.4288448,27.5001979 29.5005,27.4247984 29.5005,27.331999 C29.5005,27.2739993 29.4722513,27.2225246 29.4302228,27.1920748 L25.471962,22.2534052 C25.4430243,22.2164305 25.4003068,22.1946806 25.3548333,22.1932306 L25.3493213,22.1932306 C25.3059148,22.1932306 25.2645753,22.2113555 25.2342596,22.2447053 L23.5641423,24.0622691 L21.0734351,19.6158715 C21.0162487,19.5129221 20.8550245,19.5129221 20.7978382,19.6158715 L16.5226409,27.2457245 C16.4937032,27.2971992 16.4930142,27.3617238 16.5212629,27.4146484 C16.5495116,27.4668481 16.602564,27.4994729 16.6604393,27.4994729 L20.7833693,27.4994729 Z"></path>
                                <path d="M2,0 L46,0 C47.1045695,-2.02906125e-16 48,0.8954305 48,2 L48,10 C48,11.1045695 47.1045695,12 46,12 L2,12 C0.8954305,12 1.3527075e-16,11.1045695 0,10 L0,2 C-1.3527075e-16,0.8954305 0.8954305,2.02906125e-16 2,0 Z M11.3973011,9.7 L11.3973011,2.3999878 L12.2136569,2.3999878 L12.2136569,1.79998779 L10,1.79998779 L10,2.3999878 L10.75,2.3999878 L10.75,9.7 L10,9.7 L10,10.3 L12.2136569,10.3 L12.2136569,9.7 L11.3973011,9.7 Z M3.06794958,4.24510924 L4.75308123,4.24510924 L4.75308123,9 L4.85308123,9.1 L6.16273389,9.1 L6.26273389,9 L6.26273389,4.24510924 L7.94786555,4.24510924 L8.04786555,4.14510924 L8.04786555,3.044 L7.94786555,2.944 L3.06794958,2.944 L2.96794958,3.044 L2.96794958,4.14510924 L3.06794958,4.24510924 Z"></path>
                                <path d="M2,36 L46,36 C47.1045695,36 48,36.8954305 48,38 L48,46 C48,47.1045695 47.1045695,48 46,48 L2,48 C0.8954305,48 1.3527075e-16,47.1045695 0,46 L0,38 C-1.3527075e-16,36.8954305 0.8954305,36 2,36 Z M11.3973011,45.7 L11.3973011,38.3999878 L12.2136569,38.3999878 L12.2136569,37.7999878 L10,37.7999878 L10,38.3999878 L10.75,38.3999878 L10.75,45.7 L10,45.7 L10,46.3 L12.2136569,46.3 L12.2136569,45.7 L11.3973011,45.7 Z M3.06794958,40.2451092 L4.75308123,40.2451092 L4.75308123,45 L4.85308123,45.1 L6.16273389,45.1 L6.26273389,45 L6.26273389,40.2451092 L7.94786555,40.2451092 L8.04786555,40.1451092 L8.04786555,39.044 L7.94786555,38.944 L3.06794958,38.944 L2.96794958,39.044 L2.96794958,40.1451092 L3.06794958,40.2451092 Z"></path>
                            </g>
                        </g>
                    </g>
                </svg>