<svg width="13px" height="14px" viewBox="0 0 13 14" version="1.1" xmlns="http://www.w3.org/2000/svg" xmlns:xlink="http://www.w3.org/1999/xlink">
                    <g stroke="none" stroke-width="1" fill="none" fill-rule="evenodd">
                        <g transform="translate(-671.000000, -563.000000)" fill="#161616">
                            <path d="M677.180265,573.492738 C677.864338,573.492738 678.432551,573.360339 678.884922,573.095537 C679.337292,572.830735 679.698632,572.485945 679.968951,572.061158 C680.23927,571.636371 680.429593,571.150907 680.539928,570.604753 C680.650262,570.058598 680.705428,569.504177 680.705428,568.941472 L680.705428,563 L682.194934,563 L682.194934,568.941472 C682.194934,569.735879 682.103909,570.488899 681.921858,571.200555 C681.739806,571.912211 681.450183,572.538349 681.052979,573.078987 C680.655776,573.619625 680.139971,574.047164 679.505549,574.361616 C678.871127,574.676069 678.101557,574.833293 677.196815,574.833293 C676.258974,574.833293 675.470096,574.667794 674.830157,574.336791 C674.190218,574.005788 673.674413,573.567216 673.282726,573.021062 C672.891039,572.474907 672.609691,571.846011 672.438673,571.134355 C672.267655,570.422698 672.182147,569.691745 672.182147,568.941472 L672.182147,563 L673.671653,563 L673.671653,568.941472 C673.671653,569.526243 673.729577,570.091698 673.845428,570.637853 C673.961279,571.184008 674.154361,571.666713 674.42468,572.085983 C674.694999,572.505253 675.05358,572.844526 675.500434,573.103812 C675.947288,573.363097 676.507226,573.492738 677.180265,573.492738 Z M671,576.003619 L683.412545,576.003619 L683.412545,577 L671,577 L671,576.003619 Z" id="U-Copy-5"></path>
                        </g>
                    </g>
                </svg>